<?xml version="1.0" encoding="iso-8859-1"?>
<!-- Generator: Adobe Illustrator 16.0.0, SVG Export Plug-In . SVG Version: 6.00 Build 0)  -->
<!DOCTYPE svg PUBLIC "-//W3C//DTD SVG 1.1//EN" "http://www.w3.org/Graphics/SVG/1.1/DTD/svg11.dtd">
<svg version="1.1" id="Capa_1" xmlns="http://www.w3.org/2000/svg" xmlns:xlink="http://www.w3.org/1999/xlink" x="0px" y="0px"
	 width="45.839px" height="45.839px" fill="hsl(51, 100%, 47%)" viewBox="0 0 45.839 45.839" style="enable-background:new 0 0 45.839 45.839;"
	 xml:space="preserve">
<g>
	<g>
		<path d="M30.022,26.656l-7.105-8.809l-7.103,8.799l-4.269,17.553c-0.093,0.382-0.005,0.812,0.238,1.121
			c0.243,0.311,0.614,0.519,1.007,0.519h7.074v-5.026c0-1.697,1.347-3.072,3.042-3.072c1.695,0,3.042,1.375,3.042,3.072v5.026h7.098
			c0.394,0,0.765-0.208,1.007-0.519c0.243-0.309,0.331-0.727,0.238-1.107L30.022,26.656z"/>
		<path d="M14.445,25.076l7.347-9.15c-0.865-0.325-1.554-1.014-1.879-1.879l-9.151,7.347c-1.018,1.018-1.018,2.666,0,3.684
			c0.508,0.509,1.175,0.764,1.842,0.764C13.271,25.841,13.938,25.586,14.445,25.076z"/>
		<path d="M25.924,14.047c-0.325,0.865-1.014,1.555-1.88,1.879l7.348,9.153c0.509,0.509,1.176,0.763,1.842,0.763
			c0.667,0,1.333-0.255,1.843-0.764c1.018-1.018,1.018-2.666,0-3.684L25.924,14.047z"/>
		<path d="M19.914,11.796c0.326-0.865,1.014-1.555,1.88-1.88l-7.347-9.151c-0.509-0.509-1.176-0.764-1.842-0.764
			c-0.667,0-1.334,0.255-1.842,0.764c-1.018,1.017-1.019,2.666,0,3.685L19.914,11.796z"/>
		<path d="M25.923,11.795l9.153-7.348c1.018-1.017,1.018-2.666,0-3.684C34.566,0.254,33.9,0,33.233,0S31.9,0.254,31.392,0.763
			l-7.348,9.152C24.91,10.241,25.598,10.93,25.923,11.795z"/>
		<circle cx="22.918" cy="12.922" r="2.168"/>
	</g>
</g>
<g>
</g>
<g>
</g>
<g>
</g>
<g>
</g>
<g>
</g>
<g>
</g>
<g>
</g>
<g>
</g>
<g>
</g>
<g>
</g>
<g>
</g>
<g>
</g>
<g>
</g>
<g>
</g>
<g>
</g>
</svg>
